<?xml version="1.0" standalone="no"?>
<!DOCTYPE svg PUBLIC "-//W3C//DTD SVG 20010904//EN"
 "http://www.w3.org/TR/2001/REC-SVG-20010904/DTD/svg10.dtd">
<svg version="1.0" xmlns="http://www.w3.org/2000/svg"
 width="180.000000pt" height="180.000000pt" viewBox="0 0 180.000000 180.000000"
 preserveAspectRatio="xMidYMid meet">
<metadata>
Created by potrace 1.14, written by Peter Selinger 2001-2017
</metadata>
<g transform="translate(0.000000,180.000000) scale(0.100000,-0.100000)"
fill="#000000" stroke="none">
<path d="M758 1650 c-125 -21 -247 -74 -354 -153 l-60 -44 -115 98 c-63 54
-122 99 -131 99 -23 0 -58 -35 -58 -57 1 -24 13 -38 90 -102 36 -30 82 -71
102 -90 38 -35 38 -35 19 -55 -37 -40 -102 -162 -128 -241 -34 -106 -44 -313
-19 -418 24 -103 72 -210 132 -293 l54 -75 -34 -43 c-44 -53 -59 -92 -51 -132
12 -64 28 -61 96 18 34 40 66 74 70 76 4 2 28 -13 54 -32 59 -46 171 -99 255
-123 49 -13 100 -18 210 -17 131 0 153 3 230 28 100 33 148 56 213 102 26 19
51 34 56 34 5 0 38 -34 72 -76 61 -74 63 -75 75 -52 17 29 18 92 2 121 -6 12
-23 37 -39 56 l-27 33 47 58 c59 74 116 189 143 288 32 119 29 298 -6 415 -30
102 -62 169 -119 251 -36 50 -39 60 -26 70 56 42 198 170 204 184 8 20 -26 66
-52 70 -12 2 -58 -30 -132 -93 l-112 -96 -37 29 c-172 135 -412 198 -624 162z"/>
</g>
</svg>
